<svg width="333" height="334" viewBox="0 0 333 334" fill="none" xmlns="http://www.w3.org/2000/svg">
<g opacity="0.2">
<path d="M155.039 305.501L153.55 320.954L159.482 321.526L159.205 324.403L144.273 322.964L144.55 320.087L150.482 320.659L151.972 305.205L155.039 305.501Z" fill="black"/>
<path d="M129.186 300.928L127.584 307.382C127.479 307.804 127.392 308.278 127.323 308.806C127.253 309.333 127.268 309.859 127.366 310.384C127.453 310.916 127.67 311.387 128.016 311.798C128.354 312.207 128.879 312.499 129.59 312.676C129.971 312.77 130.363 312.802 130.766 312.77C131.169 312.738 131.562 312.608 131.944 312.377C132.316 312.153 132.658 311.799 132.972 311.315C133.283 310.839 133.541 310.191 133.744 309.372L135.331 310.57C135.047 311.712 134.571 312.691 133.903 313.509C133.226 314.325 132.39 314.899 131.393 315.232C130.395 315.573 129.267 315.587 128.01 315.275C127.017 315.028 126.239 314.659 125.675 314.168C125.112 313.677 124.704 313.128 124.451 312.52C124.197 311.913 124.052 311.297 124.013 310.672C123.975 310.048 123.996 309.469 124.076 308.935C124.145 308.408 124.22 307.983 124.3 307.66L126.158 300.176L129.186 300.928ZM138.482 303.235L134.046 321.108L131.377 320.446L133.713 311.038L133.353 310.948L135.454 302.484L138.482 303.235Z" fill="black"/>
<path d="M113.581 295.117C114.877 295.643 115.9 296.386 116.651 297.345C117.402 298.304 117.852 299.394 118 300.614C118.14 301.83 117.947 303.086 117.42 304.382C116.851 305.779 116.09 306.882 115.135 307.691C114.177 308.507 113.105 309.005 111.918 309.184C110.731 309.364 109.51 309.199 108.254 308.688C106.927 308.148 105.929 307.379 105.259 306.379C104.577 305.384 104.241 304.23 104.251 302.918C104.26 301.606 104.631 300.206 105.365 298.719L108.196 299.87L107.772 300.913C107.215 302.306 107.047 303.42 107.268 304.256C107.49 305.091 108.118 305.72 109.152 306.141C110.321 306.616 111.338 306.606 112.202 306.111C113.063 305.623 113.776 304.685 114.341 303.295C114.868 302 114.992 300.881 114.712 299.939C114.433 298.997 113.748 298.304 112.658 297.861C111.955 297.575 111.289 297.484 110.658 297.586C110.016 297.693 109.437 297.986 108.919 298.466L106.447 296.467C107.406 295.513 108.528 294.925 109.815 294.703C111.094 294.478 112.35 294.615 113.581 295.117ZM115.564 302.867L114.687 305.023L105.886 301.443L106.763 299.287L115.564 302.867Z" fill="black"/>
<path d="M75.4547 295.48L90.0719 283.25L87.5415 281.468L72.9243 293.698L75.4547 295.48Z" fill="black"/>
<path d="M66.421 263.926L52.5466 276.035L48.687 271.612C48.5861 271.496 48.3903 271.266 48.0996 270.92C47.8033 270.567 47.5343 270.214 47.2925 269.859C46.4753 268.637 46.057 267.367 46.0379 266.048C46.0067 264.729 46.3147 263.442 46.962 262.187C47.6092 260.931 48.5206 259.791 49.696 258.765C50.8715 257.739 52.1248 256.991 53.456 256.519C54.7871 256.048 56.1074 255.914 57.4168 256.118C58.7142 256.321 59.9129 256.91 61.0128 257.885C61.326 258.166 61.6372 258.477 61.9463 258.818C62.2555 259.159 62.4605 259.388 62.5614 259.504L66.421 263.926ZM62.1737 263.474L60.3743 261.412C60.2061 261.22 59.9866 260.981 59.7159 260.697C59.4396 260.406 59.1781 260.165 58.9313 259.973C58.2374 259.424 57.4799 259.146 56.6586 259.139C55.8374 259.131 55.0119 259.32 54.1821 259.704C53.3467 260.083 52.5661 260.589 51.8403 261.222C51.0887 261.878 50.4691 262.594 49.9812 263.371C49.4934 264.147 49.2069 264.94 49.1216 265.75C49.0307 266.554 49.2046 267.33 49.6431 268.079C49.7935 268.355 49.9973 268.647 50.2543 268.954C50.4994 269.261 50.706 269.511 50.8741 269.703L52.6736 271.765L62.1737 263.474Z" fill="black"/>
<path d="M49.5358 242.483L40.519 254.084L38.8769 251.476L45.4973 243.198L35.1772 245.6L33.5283 242.981L47.887 239.864L49.5358 242.483Z" fill="black"/>
<path d="M26.9471 234.818L24.4002 236.043L23.0643 233.266L25.6112 232.041L26.9471 234.818ZM41.2836 227.923L28.8371 233.909L27.5012 231.132L39.9477 225.145L41.2836 227.923Z" fill="black"/>
<path d="M37.0861 218.88L36.6881 219.02L24.1732 215.676L26.3588 221.875L23.814 222.773L20.0338 212.051L20.4439 211.906L32.9383 215.23L30.6166 208.645L33.1614 207.748L37.0861 218.88Z" fill="black"/>
<path d="M29.0532 190.468L22.5361 191.79C22.1099 191.876 21.6438 192.001 21.1376 192.165C20.6315 192.328 20.1623 192.567 19.7301 192.881C19.2879 193.188 18.9554 193.586 18.7327 194.075C18.5083 194.555 18.469 195.155 18.6147 195.873C18.6927 196.258 18.8325 196.625 19.0341 196.976C19.2357 197.326 19.5224 197.625 19.8943 197.871C20.2561 198.111 20.723 198.269 21.295 198.344C21.8587 198.421 22.5541 198.376 23.3813 198.208L22.9804 200.155C21.8273 200.389 20.738 200.379 19.7124 200.126C18.685 199.865 17.8075 199.356 17.0798 198.599C16.3437 197.843 15.8469 196.831 15.5892 195.561C15.3858 194.558 15.3851 193.697 15.5871 192.977C15.7892 192.258 16.1102 191.653 16.5503 191.164C16.9903 190.675 17.4841 190.279 18.0317 189.976C18.5793 189.674 19.1112 189.444 19.6274 189.287C20.1336 189.124 20.5496 189.009 20.8755 188.943L28.4329 187.41L29.0532 190.468ZM30.9575 199.855L12.9099 203.516L12.3633 200.821L21.8634 198.894L21.7896 198.531L30.3371 196.797L30.9575 199.855Z" fill="black"/>
<path d="M27.9915 150.02L12.602 147.974L11.8166 153.882L8.95166 153.501L10.9286 138.631L13.7935 139.012L13.0081 144.919L28.3977 146.965L27.9915 150.02Z" fill="black"/>
<path d="M33.493 124.349L27.101 122.515C26.683 122.396 26.2118 122.291 25.6872 122.203C25.1627 122.115 24.6363 122.11 24.1081 122.189C23.574 122.257 23.0954 122.457 22.6723 122.788C22.2515 123.111 21.94 123.625 21.7378 124.329C21.6297 124.706 21.5841 125.097 21.6013 125.501C21.6184 125.905 21.735 126.302 21.9513 126.692C22.1616 127.072 22.5032 127.427 22.976 127.758C23.4405 128.086 24.0784 128.367 24.8897 128.6L23.6356 130.142C22.5047 129.818 21.5426 129.307 20.7494 128.609C19.9585 127.903 19.4149 127.047 19.1186 126.039C18.814 125.029 18.8405 123.902 19.1978 122.656C19.48 121.673 19.8766 120.908 20.3878 120.363C20.899 119.818 21.4627 119.43 22.079 119.199C22.6952 118.968 23.316 118.844 23.9414 118.828C24.5667 118.813 25.1446 118.854 25.675 118.953C26.1996 119.042 26.6216 119.132 26.9412 119.223L34.3535 121.35L33.493 124.349ZM30.8515 133.556L13.1505 128.478L13.9087 125.835L23.2263 128.508L23.3286 128.152L31.712 130.557L30.8515 133.556Z" fill="black"/>
<path d="M39.8656 108.965C39.2923 110.24 38.513 111.236 37.5275 111.952C36.542 112.668 35.437 113.078 34.2125 113.182C32.9916 113.278 31.7434 113.04 30.4682 112.466C29.0918 111.848 28.017 111.047 27.2438 110.064C26.4628 109.077 26.0038 107.988 25.8668 106.795C25.7299 105.602 25.9393 104.388 26.495 103.152C27.0822 101.845 27.8874 100.875 28.9107 100.241C29.9296 99.5964 31.0947 99.3023 32.4059 99.3588C33.7172 99.4154 35.1026 99.8372 36.5622 100.624L35.3092 103.412L34.2827 102.95C32.9106 102.343 31.8031 102.135 30.96 102.326C30.1169 102.517 29.4664 103.122 29.0086 104.141C28.4913 105.292 28.4645 106.308 28.9283 107.19C29.3842 108.068 30.2965 108.814 31.6651 109.429C32.9404 110.002 34.0538 110.166 35.0053 109.921C35.9568 109.676 36.6737 109.017 37.1561 107.943C37.4671 107.251 37.5829 106.588 37.5033 105.954C37.4194 105.309 37.1471 104.719 36.6862 104.185L38.7738 101.786C39.6924 102.779 40.2395 103.922 40.415 105.216C40.5939 106.502 40.4108 107.752 39.8656 108.965ZM32.0482 110.667L29.9253 109.713L33.8207 101.046L35.9436 102L32.0482 110.667Z" fill="black"/>
<path d="M40.8781 70.8499L52.5726 85.8988L54.4445 83.4343L42.75 68.3854L40.8781 70.8499Z" fill="black"/>
<path d="M72.7365 62.9592L61.1364 48.6569L65.6952 44.9594C65.8144 44.8627 66.0522 44.6754 66.4085 44.3974C66.7714 44.114 67.1345 43.8579 67.4978 43.6291C68.7482 42.8564 70.0326 42.4843 71.351 42.5128C72.6706 42.5292 73.9459 42.8835 75.1768 43.5756C76.4078 44.2677 77.5146 45.2196 78.4974 46.4313C79.4802 47.643 80.1832 48.9225 80.6063 50.2698C81.0294 51.6171 81.1156 52.9414 80.8646 54.2426C80.615 55.5318 79.9831 56.7084 78.969 57.7724C78.6768 58.0753 78.3546 58.3751 78.0024 58.6717C77.6502 58.9683 77.4145 59.165 77.2953 59.2616L72.7365 62.9592ZM73.3412 58.731L75.4667 57.007C75.6653 56.8459 75.9116 56.6352 76.2054 56.375C76.5059 56.1093 76.7565 55.8566 76.9573 55.617C77.5306 54.9434 77.8359 54.1963 77.873 53.3759C77.9101 52.5554 77.7514 51.7237 77.3968 50.8805C77.049 50.0321 76.5716 49.2337 75.9647 48.4855C75.3364 47.7108 74.643 47.0657 73.8846 46.5501C73.1262 46.0346 72.3438 45.7196 71.5375 45.6052C70.7378 45.4854 69.9558 45.6312 69.1917 46.0424C68.9103 46.1827 68.6114 46.3758 68.2948 46.6216C67.9795 46.8554 67.7225 47.0529 67.5238 47.214L65.3984 48.9379L73.3412 58.731Z" fill="black"/>
<path d="M94.7734 46.8582L83.5055 37.4287L86.1711 35.8818L94.2054 42.7965L92.1771 32.3964L94.8538 30.8431L97.4501 45.3049L94.7734 46.8582Z" fill="black"/>
<path d="M103.251 24.5621L102.118 21.9727L104.942 20.7379L106.074 23.3273L103.251 24.5621ZM109.625 39.138L104.091 26.4837L106.915 25.2489L112.448 37.9032L109.625 39.138Z" fill="black"/>
<path d="M118.812 35.2699L118.686 34.8671L122.48 22.481L116.206 24.4415L115.401 21.8659L126.252 18.4751L126.382 18.8901L122.609 31.2564L129.274 29.1739L130.079 31.7494L118.812 35.2699Z" fill="black"/>
<path d="M147.496 28.2673L146.41 21.7067C146.339 21.2778 146.231 20.8074 146.086 20.2957C145.94 19.7839 145.719 19.3065 145.421 18.8632C145.13 18.4102 144.744 18.0636 144.263 17.8234C143.791 17.5818 143.194 17.5209 142.47 17.6406C142.083 17.7047 141.711 17.8311 141.354 18.0199C140.996 18.2087 140.687 18.4845 140.428 18.8472C140.175 19.2002 140.001 19.6611 139.905 20.23C139.807 20.7906 139.828 21.4872 139.965 22.3199L138.034 21.8489C137.842 20.6882 137.891 19.5999 138.18 18.5841C138.479 17.5669 139.019 16.7083 139.802 16.0083C140.584 15.3 141.614 14.84 142.892 14.6284C143.901 14.4613 144.762 14.4917 145.474 14.7195C146.185 14.9473 146.778 15.29 147.251 15.7474C147.724 16.2048 148.102 16.7126 148.385 17.2708C148.667 17.8289 148.878 18.3687 149.016 18.8903C149.161 19.402 149.261 19.8219 149.315 20.1499L150.574 27.7577L147.496 28.2673ZM138.046 29.8317L135.039 11.6638L137.751 11.2148L139.334 20.7781L139.7 20.7176L141.125 29.3221L138.046 29.8317Z" fill="black"/>
<path d="M187.955 28.6644L190.555 13.3587L184.68 12.3607L185.164 9.51135L199.952 12.0235L199.468 14.8728L193.593 13.8748L190.993 29.1805L187.955 28.6644Z" fill="black"/>
<path d="M213.411 35.0903L215.475 28.7686C215.609 28.3553 215.731 27.8881 215.838 27.3671C215.945 26.8461 215.969 26.3202 215.909 25.7894C215.86 25.2532 215.677 24.7677 215.362 24.333C215.054 23.9008 214.552 23.571 213.855 23.3435C213.482 23.2218 213.094 23.1622 212.689 23.1648C212.285 23.1673 211.884 23.2696 211.486 23.4716C211.099 23.6681 210.732 23.9966 210.384 24.4571C210.039 24.9095 209.736 25.5369 209.474 26.3393L207.978 25.0303C208.343 23.9118 208.888 22.9688 209.614 22.2013C210.348 21.4364 211.224 20.9241 212.241 20.6643C213.261 20.3964 214.387 20.4635 215.619 20.8656C216.592 21.183 217.341 21.607 217.868 22.1375C218.394 22.668 218.761 23.2454 218.97 23.8695C219.179 24.4937 219.28 25.1186 219.273 25.7441C219.266 26.3696 219.204 26.9456 219.086 27.4721C218.979 27.9931 218.873 28.4117 218.77 28.7277L216.378 36.0585L213.411 35.0903ZM204.305 32.1183L210.019 14.6121L212.633 15.4652L209.625 24.6803L209.978 24.7953L207.272 33.0865L204.305 32.1183Z" fill="black"/>
<path d="M228.556 42.0126C227.302 41.3938 226.336 40.579 225.656 39.5683C224.975 38.5576 224.606 37.4385 224.546 36.2111C224.494 34.9875 224.777 33.7488 225.396 32.495C226.064 31.1419 226.903 30.0967 227.914 29.3594C228.928 28.6145 230.033 28.1952 231.23 28.1013C232.427 28.0075 233.633 28.2605 234.848 28.8605C236.133 29.4945 237.073 30.3342 237.669 31.3796C238.277 32.4212 238.529 33.5962 238.425 34.9045C238.321 36.2128 237.85 37.5821 237.011 39.0124L234.27 37.6596L234.768 36.6505C235.425 35.3012 235.673 34.2018 235.512 33.3524C235.351 32.503 234.77 31.8311 233.769 31.3368C232.637 30.7783 231.623 30.7149 230.725 31.1465C229.831 31.5705 229.052 32.4553 228.388 33.8008C227.769 35.0546 227.565 36.1613 227.776 37.121C227.987 38.0808 228.62 38.821 229.675 39.3418C230.355 39.6776 231.014 39.8172 231.65 39.7605C232.298 39.7 232.897 39.4491 233.448 39.0078L235.77 41.1806C234.745 42.0628 233.582 42.5683 232.283 42.6969C230.991 42.8294 229.749 42.6013 228.556 42.0126ZM227.137 34.1389L228.168 32.0518L236.688 36.2574L235.658 38.3445L227.137 34.1389Z" fill="black"/>
<path d="M266.61 44.4006L251.149 55.5445L253.545 57.5041L269.006 46.3601L266.61 44.4006Z" fill="black"/>
<path d="M273.345 76.5211L288.056 65.4446L291.587 70.1339C291.679 70.2565 291.858 70.5008 292.123 70.8669C292.393 71.2398 292.636 71.612 292.851 71.9833C293.578 73.2607 293.904 74.5577 293.828 75.8742C293.764 77.1924 293.364 78.454 292.628 79.6592C291.892 80.8644 290.9 81.9362 289.654 82.8746C288.408 83.8131 287.103 84.4694 285.742 84.8436C284.38 85.2179 283.054 85.2562 281.762 84.9585C280.483 84.6625 279.33 83.9886 278.303 82.9367C278.011 82.6338 277.723 82.3009 277.439 81.9383C277.156 81.5756 276.968 81.333 276.875 81.2104L273.345 76.5211ZM277.548 77.278L279.194 79.4643C279.348 79.6686 279.55 79.9223 279.799 80.2254C280.054 80.5352 280.298 80.7948 280.53 81.0041C281.182 81.6014 281.918 81.9333 282.736 82C283.555 82.0667 284.392 81.9381 285.247 81.6142C286.108 81.2972 286.923 80.8489 287.692 80.2695C288.489 79.6695 289.159 78.9998 289.702 78.2605C290.244 77.5212 290.587 76.7507 290.731 75.949C290.879 75.1542 290.762 74.3675 290.378 73.589C290.248 73.3028 290.066 72.997 289.832 72.6718C289.61 72.3482 289.421 72.0843 289.268 71.88L287.622 69.6937L277.548 77.278Z" fill="black"/>
<path d="M288.64 99.1244L298.47 88.204L299.92 90.9237L292.72 98.7033L303.186 97.0515L304.642 99.7826L290.096 101.855L288.64 99.1244Z" fill="black"/>
<path d="M310.617 108.401L313.245 107.363L314.378 110.23L311.749 111.268L310.617 108.401ZM295.82 114.245L308.666 109.172L309.798 112.038L296.953 117.112L295.82 114.245Z" fill="black"/>
<path d="M299.355 123.566L299.762 123.455L312.003 127.693L310.27 121.352L312.873 120.641L315.87 131.607L315.451 131.722L303.229 127.506L305.069 134.241L302.467 134.952L299.355 123.566Z" fill="black"/>
<path d="M305.318 152.484L311.914 151.636C312.345 151.58 312.819 151.489 313.336 151.362C313.852 151.236 314.337 151.031 314.791 150.75C315.254 150.475 315.615 150.102 315.872 149.631C316.13 149.168 316.213 148.572 316.119 147.845C316.069 147.456 315.956 147.08 315.781 146.715C315.605 146.351 315.34 146.033 314.987 145.76C314.644 145.495 314.189 145.304 313.624 145.188C313.068 145.07 312.371 145.065 311.533 145.173L312.074 143.26C313.241 143.11 314.327 143.198 315.331 143.524C316.337 143.859 317.176 144.43 317.847 145.238C318.527 146.044 318.949 147.09 319.114 148.375C319.245 149.39 319.184 150.249 318.93 150.952C318.677 151.655 318.313 152.235 317.839 152.691C317.365 153.148 316.844 153.507 316.276 153.769C315.708 154.031 315.161 154.222 314.634 154.341C314.118 154.468 313.694 154.553 313.365 154.595L305.716 155.579L305.318 152.484ZM304.096 142.984L322.36 140.634L322.711 143.361L313.097 144.598L313.144 144.966L304.494 146.079L304.096 142.984Z" fill="black"/>
<path d="M303.46 192.902L318.662 196.052L319.871 190.217L322.701 190.803L319.657 205.492L316.827 204.905L318.036 199.07L302.834 195.92L303.46 192.902Z" fill="black"/>
<path d="M296.122 218.11L302.365 220.4C302.773 220.55 303.236 220.688 303.752 220.814C304.269 220.94 304.794 220.982 305.326 220.942C305.864 220.912 306.356 220.747 306.802 220.447C307.245 220.156 307.592 219.666 307.845 218.978C307.98 218.609 308.053 218.223 308.065 217.819C308.078 217.415 307.99 217.01 307.802 216.605C307.62 216.212 307.305 215.833 306.857 215.469C306.417 215.108 305.801 214.782 305.009 214.491L306.371 213.043C307.476 213.448 308.398 214.027 309.139 214.78C309.877 215.541 310.358 216.435 310.581 217.461C310.811 218.49 310.704 219.613 310.258 220.83C309.905 221.79 309.454 222.524 308.905 223.031C308.356 223.538 307.766 223.884 307.135 224.07C306.503 224.256 305.875 224.335 305.25 224.305C304.625 224.276 304.052 224.193 303.53 224.056C303.013 223.93 302.599 223.81 302.287 223.695L295.047 221.039L296.122 218.11ZM299.42 209.117L316.709 215.459L315.762 218.04L306.662 214.702L306.534 215.05L298.346 212.047L299.42 209.117Z" fill="black"/>
<path d="M288.657 232.995C289.32 231.764 290.169 230.827 291.204 230.184C292.239 229.541 293.37 229.212 294.599 229.196C295.824 229.188 297.051 229.516 298.282 230.18C299.61 230.896 300.624 231.773 301.325 232.809C302.033 233.849 302.412 234.969 302.462 236.169C302.513 237.368 302.217 238.564 301.573 239.757C300.893 241.018 300.02 241.927 298.954 242.486C297.891 243.055 296.708 243.265 295.404 243.114C294.1 242.963 292.749 242.442 291.35 241.552L292.801 238.862L293.791 239.396C295.116 240.101 296.206 240.388 297.06 240.258C297.915 240.128 298.607 239.572 299.137 238.589C299.736 237.478 299.836 236.467 299.437 235.554C299.046 234.646 298.19 233.835 296.869 233.123C295.639 232.459 294.54 232.216 293.573 232.392C292.606 232.568 291.844 233.173 291.285 234.209C290.925 234.877 290.762 235.53 290.796 236.168C290.833 236.817 291.062 237.425 291.483 237.991L289.228 240.233C288.383 239.177 287.92 237.998 287.838 236.694C287.752 235.398 288.025 234.165 288.657 232.995ZM296.576 231.861L298.625 232.966L294.115 241.329L292.066 240.224L296.576 231.861Z" fill="black"/>
<path d="M284.898 270.939L274.319 255.086L272.274 257.409L282.853 273.262L284.898 270.939Z" fill="black"/>
<path d="M252.554 276.508L263.092 291.609L258.279 294.969C258.153 295.056 257.902 295.226 257.527 295.478C257.144 295.734 256.764 295.963 256.385 296.165C255.082 296.846 253.774 297.124 252.461 297.001C251.146 296.889 249.9 296.444 248.722 295.665C247.544 294.886 246.509 293.857 245.616 292.577C244.723 291.298 244.114 289.971 243.789 288.597C243.464 287.222 243.474 285.895 243.818 284.616C244.16 283.348 244.875 282.22 245.963 281.232C246.277 280.951 246.62 280.675 246.992 280.405C247.365 280.134 247.614 279.955 247.74 279.867L252.554 276.508ZM251.645 280.682L249.401 282.248C249.192 282.394 248.931 282.586 248.619 282.825C248.3 283.068 248.032 283.302 247.814 283.527C247.194 284.157 246.836 284.88 246.739 285.696C246.643 286.512 246.742 287.353 247.034 288.219C247.32 289.09 247.739 289.921 248.29 290.711C248.861 291.529 249.506 292.223 250.225 292.791C250.944 293.36 251.702 293.731 252.498 293.903C253.287 294.08 254.077 293.991 254.869 293.636C255.16 293.517 255.472 293.346 255.806 293.123C256.137 292.913 256.407 292.734 256.617 292.588L258.861 291.022L251.645 280.682Z" fill="black"/>
<path d="M229.413 290.98L239.972 301.198L237.201 302.548L229.687 295.072L230.96 305.591L228.178 306.948L226.631 292.336L229.413 290.98Z" fill="black"/>
<path d="M219.35 312.609L220.293 315.273L217.387 316.301L216.445 313.637L219.35 312.609ZM214.044 297.611L218.651 310.632L215.745 311.66L211.138 298.639L214.044 297.611Z" fill="black"/>
<path d="M204.601 300.806L204.698 301.217L200.021 313.297L206.42 311.794L207.037 314.421L195.969 317.02L195.87 316.597L200.525 304.535L193.727 306.132L193.11 303.505L204.601 300.806Z" fill="black"/>
<path d="M175.487 305.721L176.097 312.343C176.137 312.776 176.211 313.253 176.319 313.774C176.427 314.295 176.614 314.787 176.879 315.25C177.136 315.723 177.496 316.097 177.958 316.371C178.412 316.646 179.003 316.75 179.733 316.683C180.124 316.647 180.504 316.547 180.875 316.385C181.245 316.222 181.573 315.969 181.858 315.626C182.135 315.293 182.342 314.845 182.479 314.285C182.617 313.733 182.647 313.037 182.569 312.196L184.462 312.805C184.57 313.977 184.443 315.059 184.08 316.051C183.709 317.044 183.108 317.861 182.277 318.503C181.447 319.153 180.386 319.538 179.096 319.657C178.077 319.75 177.221 319.658 176.527 319.379C175.834 319.101 175.268 318.716 174.829 318.226C174.39 317.736 174.049 317.202 173.808 316.625C173.566 316.048 173.395 315.494 173.295 314.964C173.187 314.443 173.118 314.017 173.087 313.686L172.38 306.007L175.487 305.721ZM185.025 304.842L186.715 323.18L183.977 323.432L183.087 313.779L182.718 313.813L181.918 305.129L185.025 304.842Z" fill="black"/>
</g>
</svg>
