<svg width="52" height="52" viewBox="0 0 52 52" fill="none" xmlns="http://www.w3.org/2000/svg">
<circle cx="25.8086" cy="26.0911" r="25.6575" fill="black"/>
<g clip-path="url(#clip0_288_1000)">
<path d="M25.7075 25.8312C26.6485 25.8312 27.4633 25.4937 28.1291 24.8278C28.7949 24.162 29.1324 23.3473 29.1324 22.4062C29.1324 21.4654 28.7949 20.6506 28.129 19.9846C27.4631 19.319 26.6484 18.9814 25.7075 18.9814C24.7663 18.9814 23.9517 19.319 23.2859 19.9847C22.6201 20.6505 22.2825 21.4653 22.2825 22.4062C22.2825 23.3473 22.6201 24.1621 23.286 24.8279C23.9519 25.4936 24.7666 25.8312 25.7075 25.8312Z" fill="#B6FF7D"/>
<path d="M31.7002 29.9162C31.6809 29.6391 31.6421 29.3369 31.5849 29.0177C31.5272 28.6961 31.4529 28.3921 31.3639 28.1143C31.2721 27.8271 31.1471 27.5435 30.9926 27.2718C30.8322 26.9897 30.6439 26.7441 30.4326 26.542C30.2116 26.3305 29.941 26.1605 29.6281 26.0365C29.3163 25.9132 28.9708 25.8507 28.6012 25.8507C28.456 25.8507 28.3156 25.9103 28.0445 26.0868C27.8777 26.1956 27.6825 26.3214 27.4646 26.4606C27.2784 26.5793 27.026 26.6905 26.7143 26.7912C26.4102 26.8896 26.1015 26.9395 25.7967 26.9395C25.492 26.9395 25.1833 26.8896 24.8789 26.7912C24.5676 26.6906 24.3152 26.5794 24.1292 26.4607C23.9134 26.3228 23.7181 26.197 23.5487 26.0867C23.278 25.9101 23.1375 25.8506 22.9923 25.8506C22.6226 25.8506 22.2772 25.9132 21.9655 26.0366C21.6528 26.1604 21.3821 26.3304 21.1609 26.5421C20.9497 26.7443 20.7612 26.9898 20.6011 27.2718C20.4467 27.5435 20.3218 27.827 20.2298 28.1144C20.1409 28.3922 20.0666 28.6961 20.0089 29.0177C19.9517 29.3364 19.9129 29.6388 19.8937 29.9165C19.8748 30.1886 19.8652 30.471 19.8652 30.7562C19.8652 31.4985 20.1012 32.0994 20.5665 32.5426C21.0261 32.9799 21.6341 33.2017 22.3736 33.2017H29.2205C29.96 33.2017 30.5679 32.98 31.0275 32.5426C31.4929 32.0997 31.7289 31.4987 31.7289 30.7561C31.7288 30.4696 31.7191 30.187 31.7002 29.9162Z" fill="#B6FF7D"/>
</g>
<defs>
<clipPath id="clip0_288_1000">
<rect width="14.2198" height="14.2198" fill="white" transform="translate(18.6987 18.9814)"/>
</clipPath>
</defs>
</svg>
