<svg width="1820" height="76" viewBox="0 0 1820 76" fill="none" xmlns="http://www.w3.org/2000/svg">
<g clip-path="url(#clip0_406_2)">
<path d="M1140.51 1.04297C1129.64 1.04297 1118.77 1.04297 1107.91 1.04297C1108.59 3.94671 1108.99 7.03193 1110.08 9.79956C1113.48 18.6923 1117.14 27.4942 1120.59 36.3416C1125.48 48.8639 1130.28 61.4317 1135.08 73.9994H1167.68C1164.11 63.8363 1160.62 53.5825 1156.86 43.4648C1151.56 29.2637 1145.99 15.1987 1140.51 1.04297Z" fill="black"/>
<path d="M1354.63 73.9994H1385.06C1380.89 62.1576 1376.86 50.2251 1372.47 38.4286C1367.81 25.9062 1362.78 13.4746 1357.89 1.04297C1347.02 1.04297 1336.15 1.04297 1325.28 1.04297C1325.6 1.85965 1325.92 2.72169 1326.28 3.53837C1335.74 27.0405 1345.21 50.4973 1354.63 73.9994Z" fill="black"/>
<path d="M1463.32 73.9994H1494.84C1490.76 63.2919 1486.91 52.4936 1482.61 41.8314C1477.08 28.1748 1471.2 14.6089 1465.49 1.04297C1454.98 1.04297 1444.48 1.04297 1433.97 1.04297C1434.42 2.22261 1434.92 3.40226 1435.38 4.53653C1444.7 27.6757 1453.99 50.8149 1463.32 73.9994Z" fill="black"/>
<path d="M1253.55 73.9994H1285.07C1284.25 70.9142 1283.71 67.6929 1282.53 64.7891C1279.63 57.7566 1276.28 50.951 1273.38 43.9185C1267.41 29.672 1261.61 15.3348 1255.77 1.04297C1245.62 1.04297 1235.48 1.04297 1225.34 1.04297C1225.88 2.90318 1226.29 4.85413 1227.01 6.66897C1235.84 29.1276 1244.72 51.5408 1253.59 73.9994H1253.55Z" fill="black"/>
<path d="M1522.01 73.9994H1553.53C1543.75 49.6806 1533.97 25.3618 1524.19 1.04297C1514.04 1.04297 1503.9 1.04297 1493.75 1.04297C1495.39 6.03377 1496.7 11.1153 1498.65 15.97C1506.34 35.3434 1514.22 54.6714 1522.01 73.9994Z" fill="black"/>
<path d="M1613.31 73.9994H1644.83C1638.22 56.2594 1631.56 38.5194 1624.95 20.734C1622.51 14.1552 1620.11 7.57638 1617.66 1.04297C1607.15 1.04297 1596.65 1.04297 1586.14 1.04297C1589.04 8.75603 1591.98 16.4691 1594.88 24.1821C1598.1 32.848 1601.22 41.5592 1604.39 50.2704C1607.33 58.2104 1610.32 66.1049 1613.31 73.9994Z" fill="black"/>
<path d="M1215.51 1.04297C1210.44 1.04297 1205.37 1.04297 1200.29 1.04297C1200.38 1.90502 1200.29 2.85781 1200.61 3.67448C1205.64 16.333 1210.85 28.8554 1215.74 41.5592C1219.86 52.3121 1223.57 63.1558 1227.47 73.9994H1243.77C1234.35 49.6806 1224.93 25.3618 1215.51 1.04297Z" fill="black"/>
<path d="M1190.51 1.04439C1185.08 1.04439 1179.65 1.04439 1174.21 1.04439C1177.06 7.94078 1180.1 14.7918 1182.77 21.7789C1189.43 39.156 1195.9 56.5784 1202.47 74.0009H1217.69C1217.64 73.2749 1217.73 72.5036 1217.5 71.8684C1210.49 53.4478 1203.42 35.0272 1196.4 16.5613C1194.41 11.389 1192.51 6.21668 1190.56 0.999023L1190.51 1.04439Z" fill="black"/>
<path d="M1550.27 1.04297C1545.2 1.04297 1540.13 1.04297 1535.05 1.04297C1535.6 2.90318 1535.96 4.85413 1536.68 6.66897C1545.52 29.1276 1554.44 51.5408 1563.31 73.9994H1578.53C1573.37 60.4335 1568.25 46.8222 1563 33.2563C1558.83 22.5034 1554.53 11.7505 1550.27 1.04297Z" fill="black"/>
<path d="M1327.46 73.9994C1322.03 59.753 1316.64 45.4611 1311.07 31.26C1308.08 23.6377 1304.55 16.2422 1301.42 8.71066C1300.42 6.26063 1299.97 3.62911 1299.25 1.04297C1294.18 1.04297 1289.1 1.04297 1284.03 1.04297C1288.15 11.932 1292.23 22.8664 1296.44 33.7554C1301.65 47.1852 1306.99 60.615 1312.29 73.9994H1327.51H1327.46Z" fill="black"/>
<path d="M1411.15 73.9994C1406.39 61.6585 1401.82 49.2269 1396.88 36.9314C1393.44 28.3109 1389.45 19.8719 1385.97 11.2514C1384.61 7.98472 1383.88 4.44579 1382.89 1.04297C1377.81 1.04297 1372.74 1.04297 1367.67 1.04297C1368.17 2.90318 1368.53 4.85413 1369.26 6.66897C1378.13 29.1276 1387.01 51.5408 1395.93 73.9994H1411.15Z" fill="black"/>
<path d="M1164.42 1.04297C1159.35 1.04297 1154.28 1.04297 1149.2 1.04297C1155.82 17.558 1162.43 34.073 1169.09 50.5427C1172.21 58.3465 1175.38 66.1503 1178.55 73.9994H1192.68C1192.09 72.1392 1191.68 70.1883 1190.96 68.3734C1182.13 45.9148 1173.3 23.5016 1164.42 1.04297Z" fill="black"/>
<path d="M1408.98 1.04297C1418.76 25.3618 1428.54 49.6806 1438.32 73.9994H1452.45C1447.15 60.4789 1441.76 47.0037 1436.56 33.4832C1432.39 22.6849 1428.31 11.8413 1424.19 1.04297C1419.12 1.04297 1414.05 1.04297 1408.98 1.04297Z" fill="black"/>
<path d="M1588.31 73.9994H1603.52C1597.77 59.7076 1592.02 45.4611 1586.27 31.1693C1582.24 21.1423 1578.21 11.0699 1574.18 1.04297C1569.47 1.04297 1564.76 1.04297 1560.05 1.04297C1561.68 5.62543 1563.22 10.2079 1564.99 14.6996C1572.73 34.4814 1580.52 54.2177 1588.31 73.9994Z" fill="black"/>
<path d="M1687.22 73.9994C1682.28 60.8872 1677.44 47.6843 1672.32 34.6175C1670.33 29.5813 1667.52 24.8173 1665.52 19.7812C1663.08 13.6107 1661.13 7.30416 1658.96 1.04297C1654.25 1.04297 1649.54 1.04297 1644.83 1.04297C1650.49 15.607 1656.24 30.0804 1661.72 44.6898C1665.34 54.3538 1668.6 64.1993 1672 73.9994H1687.22Z" fill="black"/>
<path d="M1084 2.13187C1084.59 2.81244 1085.36 3.35689 1085.68 4.12819C1094.91 27.4035 1104.15 50.6788 1113.35 73.9994H1127.48C1117.69 49.6806 1107.91 25.3618 1098.13 1.04297C1093.42 1.40594 1088.71 1.7689 1084 2.13187Z" fill="black"/>
<path d="M1722 72.9105C1719.05 66.1956 1715.93 59.5715 1713.21 52.8112C1706.28 35.6156 1699.49 18.3293 1692.65 1.04297C1690.48 1.04297 1688.3 1.04297 1686.13 1.04297C1688.44 6.75971 1690.75 12.5218 1693.01 18.2386C1698.99 33.1656 1704.97 48.0926 1710.95 63.0197C1712.4 66.6947 1713.94 70.3244 1715.47 73.9541C1717.65 73.5911 1719.82 73.2281 1722 72.8652V72.9105Z" fill="black"/>
<path d="M1819.96 27.2226V44.645C1819.5 44.9172 1818.78 45.0987 1818.64 45.4617C1814.16 58.3924 1805.28 66.786 1792.38 71.0509C1792.1 71.1416 1791.92 71.55 1791.7 71.8222H1776.48C1771.32 69.0092 1765.84 66.5592 1761.04 63.2471C1753.88 58.3017 1751.16 50.2256 1748.22 42.4218V29.355C1752.52 15.1539 1761.08 4.9908 1775.8 0.816677C1776.07 0.725935 1776.25 0.272226 1776.48 0C1781.19 0 1785.9 0 1790.61 0C1791.7 0.589822 1792.78 1.4065 1793.96 1.76947C1805.46 5.3084 1813.25 12.7039 1817.46 24.0012C1817.92 25.2262 1819.14 26.179 1820 27.2226H1819.96ZM1783.73 6.26119C1767.42 6.30656 1754.02 19.8271 1754.15 36.1153C1754.24 52.4942 1767.69 65.7879 1784 65.6971C1800.53 65.6064 1813.52 52.4488 1813.48 35.843C1813.43 19.328 1800.26 6.21582 1783.73 6.26119Z" fill="black"/>
<path d="M1802.29 44.3268C1797.99 54.2177 1790.06 59.1177 1780.87 57.7566C1771.81 56.4408 1764.61 48.0926 1763.71 37.9295C1762.85 28.2201 1768.6 18.783 1777.47 15.4709C1785.9 12.2949 1794.41 15.4709 1800.7 24.5904C1798.94 25.6793 1797.22 26.7229 1795.59 27.721C1794.77 27.1766 1794.23 26.9497 1793.91 26.5868C1790.02 22.0497 1785.22 19.8265 1779.42 22.1858C1773.9 24.409 1771.04 28.9914 1770.63 34.8896C1770.18 40.924 1772.36 45.9602 1777.56 49.2722C1783.04 52.7658 1789.84 51.4954 1793.78 45.6426C1796.4 41.6953 1798.76 41.6045 1802.29 44.3722V44.3268Z" fill="black"/>
</g>
<path d="M522.528 2.47168C511.656 2.47168 500.785 2.47168 489.914 2.47168C490.593 5.37073 491.001 8.45097 492.088 11.2141C495.485 20.0925 499.154 28.8802 502.597 37.7133C507.489 50.2154 512.291 62.7629 517.092 75.3104H549.707C546.128 65.1637 542.64 54.9264 538.88 44.825C533.581 30.6468 528.009 16.6046 522.528 2.47168Z" fill="black"/>
<path d="M736.695 75.3104H767.135C762.968 63.4877 758.936 51.5744 754.543 39.797C749.877 27.2948 744.849 14.8832 739.957 2.47168C729.085 2.47168 718.214 2.47168 707.342 2.47168C707.659 3.28704 707.976 4.14769 708.339 4.96305C717.806 28.4273 727.273 51.8462 736.695 75.3104Z" fill="black"/>
<path d="M845.409 75.3104H876.937C872.86 64.6201 869.009 53.8393 864.706 43.1943C859.18 29.5597 853.291 16.0157 847.584 2.47168C837.075 2.47168 826.566 2.47168 816.056 2.47168C816.509 3.64942 817.008 4.82716 817.461 5.9596C826.792 29.0614 836.078 52.1632 845.409 75.3104Z" fill="black"/>
<path d="M635.59 75.3104H667.117C666.302 72.2301 665.758 69.014 664.581 66.1149C661.681 59.0938 658.329 52.2991 655.43 45.278C649.451 31.0545 643.653 16.7405 637.81 2.47168C627.663 2.47168 617.516 2.47168 607.37 2.47168C607.913 4.32888 608.321 6.27669 609.046 8.08859C617.879 30.5109 626.757 52.888 635.635 75.3104H635.59Z" fill="black"/>
<path d="M904.12 75.3104H935.647C925.863 51.0308 916.079 26.7512 906.295 2.47168C896.148 2.47168 886.001 2.47168 875.855 2.47168C877.485 7.45443 878.799 12.5278 880.747 17.3746C888.447 36.7167 896.329 56.0135 904.12 75.3104Z" fill="black"/>
<path d="M995.441 75.3104H1026.97C1020.35 57.599 1013.7 39.8876 1007.08 22.1309C1004.64 15.5627 1002.24 8.99455 999.79 2.47168C989.281 2.47168 978.772 2.47168 968.262 2.47168C971.162 10.1723 974.106 17.8729 977.005 25.5735C980.221 34.2254 983.347 42.9225 986.517 51.6197C989.462 59.5468 992.451 67.4286 995.441 75.3104Z" fill="black"/>
<path d="M597.544 2.47168C592.47 2.47168 587.397 2.47168 582.324 2.47168C582.414 3.33234 582.324 4.28359 582.641 5.09895C587.669 17.737 592.878 30.2392 597.77 42.9225C601.892 53.6581 605.607 64.4842 609.502 75.3104H625.81C616.388 51.0308 606.966 26.7512 597.544 2.47168Z" fill="black"/>
<path d="M572.54 2.47206C567.104 2.47206 561.669 2.47206 556.233 2.47206C559.087 9.3573 562.122 16.1973 564.794 23.1731C571.453 40.5221 577.931 57.9164 584.499 75.3107H599.719C599.673 74.586 599.764 73.8159 599.538 73.1817C592.516 54.7909 585.45 36.4 578.429 17.9639C576.436 12.7999 574.533 7.63599 572.585 2.42676L572.54 2.47206Z" fill="black"/>
<path d="M932.383 2.4707C927.31 2.4707 922.236 2.4707 917.163 2.4707C917.707 4.32791 918.069 6.27571 918.794 8.08762C927.627 30.51 936.551 52.887 945.429 75.3094H960.649C955.485 61.7654 950.366 48.1761 945.112 34.6321C940.944 23.8965 936.641 13.161 932.383 2.4707Z" fill="black"/>
<path d="M709.519 75.3104C704.083 61.0869 698.693 46.8181 693.121 32.6399C690.132 25.0299 686.599 17.6464 683.473 10.127C682.476 7.68091 682.023 5.05365 681.299 2.47168C676.225 2.47168 671.152 2.47168 666.079 2.47168C670.201 13.3431 674.278 24.2599 678.49 35.1313C683.699 48.5394 689.045 61.9475 694.344 75.3104H709.564H709.519Z" fill="black"/>
<path d="M793.225 75.3104C788.469 62.9894 783.894 50.5778 778.956 38.3022C775.514 29.6956 771.528 21.2702 768.04 12.6637C766.681 9.40223 765.956 5.86901 764.959 2.47168C759.886 2.47168 754.813 2.47168 749.739 2.47168C750.238 4.32888 750.6 6.27669 751.325 8.08859C760.203 30.5109 769.081 52.888 778.005 75.3104H793.225Z" fill="black"/>
<path d="M546.443 2.47168C541.369 2.47168 536.296 2.47168 531.223 2.47168C537.836 18.96 544.45 35.4484 551.108 51.8915C554.234 59.6827 557.405 67.4739 560.576 75.3104H574.708C574.12 73.4532 573.712 71.5054 572.987 69.6935C564.154 47.2711 555.321 24.894 546.443 2.47168Z" fill="black"/>
<path d="M791.055 2.4707C800.84 26.7503 810.624 51.0298 820.408 75.3094H834.541C829.241 61.8107 823.851 48.3573 818.642 34.8586C814.474 24.0777 810.397 13.2516 806.275 2.4707C801.202 2.4707 796.129 2.4707 791.055 2.4707Z" fill="black"/>
<path d="M970.431 75.3104H985.651C979.898 61.0416 974.145 46.8181 968.392 32.5493C964.361 22.5386 960.329 12.4825 956.298 2.47168C951.587 2.47168 946.876 2.47168 942.165 2.47168C943.796 7.04675 945.336 11.6218 947.103 16.1063C954.848 35.8561 962.64 55.5606 970.431 75.3104Z" fill="black"/>
<path d="M1069.36 75.3094C1064.43 62.2184 1059.58 49.0367 1054.46 35.991C1052.47 30.9629 1049.66 26.2067 1047.67 21.1786C1045.22 15.0182 1043.27 8.72178 1041.1 2.4707C1036.39 2.4707 1031.68 2.4707 1026.96 2.4707C1032.63 17.0113 1038.38 31.4612 1043.86 46.0471C1047.48 55.6955 1050.75 65.5251 1054.14 75.3094H1069.36Z" fill="black"/>
<path d="M466 3.55785C466.589 4.23731 467.359 4.78089 467.676 5.55095C476.917 28.7887 486.158 52.0264 495.353 75.3094H509.486C499.702 51.0298 489.917 26.7503 480.133 2.4707C475.422 2.83308 470.711 3.19547 466 3.55785Z" fill="black"/>
<path d="M1104.15 74.2222C1101.21 67.5182 1098.08 60.9047 1095.36 54.1554C1088.43 36.9875 1081.64 19.7291 1074.8 2.4707C1072.62 2.4707 1070.45 2.4707 1068.28 2.4707C1070.59 8.17821 1072.9 13.931 1075.16 19.6385C1081.14 34.5415 1087.12 49.4444 1093.1 64.3473C1094.55 68.0165 1096.09 71.6403 1097.63 75.2641C1099.8 74.9017 1101.98 74.5393 1104.15 74.1769V74.2222Z" fill="black"/>
<path d="M96.6952 75.3104H127.135C122.968 63.4877 118.936 51.5744 114.543 39.797C109.877 27.2948 104.849 14.8832 99.9566 2.47168C89.0852 2.47168 78.2138 2.47168 67.3423 2.47168C67.6594 3.28704 67.9765 4.14769 68.3389 4.96305C77.8061 28.4273 87.2733 51.8462 96.6952 75.3104Z" fill="black"/>
<path d="M205.409 75.3104H236.937C232.86 64.6201 229.009 53.8393 224.706 43.1943C219.18 29.5597 213.291 16.0157 207.584 2.47168C197.075 2.47168 186.566 2.47168 176.056 2.47168C176.509 3.64942 177.008 4.82716 177.461 5.9596C186.792 29.0614 196.078 52.1632 205.409 75.3104Z" fill="black"/>
<path d="M-4.41 75.3104H27.1172C26.3018 72.2301 25.7583 69.014 24.5805 66.1149C21.6815 59.0938 18.3295 52.2991 15.4304 45.278C9.45111 31.0545 3.65301 16.7405 -2.19039 2.47168C-12.3371 2.47168 -22.4838 2.47168 -32.6304 2.47168C-32.0869 4.32888 -31.6792 6.27669 -30.9544 8.08859C-22.1214 30.5109 -13.243 52.888 -4.36469 75.3104H-4.41Z" fill="black"/>
<path d="M264.12 75.3104H295.647C285.863 51.0308 276.079 26.7512 266.295 2.47168C256.148 2.47168 246.001 2.47168 235.855 2.47168C237.485 7.45443 238.799 12.5278 240.747 17.3746C248.447 36.7167 256.329 56.0135 264.12 75.3104Z" fill="black"/>
<path d="M355.441 75.3104H386.968C380.355 57.599 373.696 39.8876 367.083 22.1309C364.637 15.5627 362.236 8.99455 359.79 2.47168C349.281 2.47168 338.772 2.47168 328.262 2.47168C331.162 10.1723 334.106 17.8729 337.005 25.5735C340.221 34.2254 343.347 42.9225 346.517 51.6197C349.462 59.5468 352.451 67.4286 355.441 75.3104Z" fill="black"/>
<path d="M292.383 2.4707C287.31 2.4707 282.236 2.4707 277.163 2.4707C277.707 4.32791 278.069 6.27571 278.794 8.08762C287.627 30.51 296.551 52.887 305.429 75.3094H320.649C315.485 61.7654 310.366 48.1761 305.112 34.6321C300.944 23.8965 296.641 13.161 292.383 2.4707Z" fill="black"/>
<path d="M69.5191 75.3104C64.0834 61.0869 58.693 46.8181 53.1214 32.6399C50.1318 25.0299 46.5985 17.6464 43.473 10.127C42.4764 7.68091 42.0235 5.05365 41.2987 2.47168C36.2254 2.47168 31.152 2.47168 26.0787 2.47168C30.2008 13.3431 34.2776 24.2599 38.4902 35.1313C43.6995 48.5394 49.0446 61.9475 54.3444 75.3104H69.5645H69.5191Z" fill="black"/>
<path d="M153.225 75.3104C148.469 62.9894 143.894 50.5778 138.956 38.3022C135.514 29.6956 131.528 21.2702 128.04 12.6637C126.681 9.40223 125.956 5.86901 124.959 2.47168C119.886 2.47168 114.813 2.47168 109.739 2.47168C110.238 4.32888 110.6 6.27669 111.325 8.08859C120.203 30.5109 129.081 52.888 138.005 75.3104H153.225Z" fill="black"/>
<path d="M151.055 2.4707C160.84 26.7503 170.624 51.0298 180.408 75.3094H194.541C189.241 61.8107 183.851 48.3573 178.642 34.8586C174.474 24.0777 170.397 13.2516 166.275 2.4707C161.202 2.4707 156.129 2.4707 151.055 2.4707Z" fill="black"/>
<path d="M330.431 75.3104H345.651C339.898 61.0416 334.145 46.8181 328.392 32.5493C324.361 22.5386 320.329 12.4825 316.298 2.47168C311.587 2.47168 306.876 2.47168 302.165 2.47168C303.796 7.04675 305.336 11.6218 307.103 16.1063C314.848 35.8561 322.64 55.5606 330.431 75.3104Z" fill="black"/>
<path d="M429.363 75.3094C424.426 62.2184 419.579 49.0367 414.46 35.991C412.467 30.9629 409.659 26.2067 407.666 21.1786C405.22 15.0182 403.272 8.72178 401.098 2.4707C396.387 2.4707 391.676 2.4707 386.965 2.4707C392.627 17.0113 398.38 31.4612 403.861 46.0471C407.484 55.6955 410.746 65.5251 414.143 75.3094H429.363Z" fill="black"/>
<path d="M464.151 74.2222C461.207 67.5182 458.081 60.9047 455.363 54.1554C448.433 36.9875 441.638 19.7291 434.798 2.4707C432.624 2.4707 430.449 2.4707 428.275 2.4707C430.585 8.17821 432.895 13.931 435.16 19.6385C441.14 34.5415 447.119 49.4444 453.098 64.3473C454.548 68.0165 456.088 71.6403 457.628 75.2641C459.802 74.9017 461.977 74.5393 464.151 74.1769V74.2222Z" fill="black"/>
<defs>
<clipPath id="clip0_406_2">
<rect width="736" height="74" fill="white" transform="matrix(-1 0 0 1 1820 0)"/>
</clipPath>
</defs>
</svg>
