<svg width="184" height="38" viewBox="0 0 184 38" fill="none" xmlns="http://www.w3.org/2000/svg">
<g clip-path="url(#clip0_288_599)">
<path d="M41.8635 10.985H50.1442V32.3819H55.252V10.985H63.5327V6.46875H41.8635V10.985Z" fill="black"/>
<path d="M66.9688 32.3819H72.0766V21.4243H83.9174V32.3819H89.0252V6.46875H83.9174V16.908H72.0766V6.46875H66.9688V32.3819Z" fill="black"/>
<path d="M94.2896 32.3819H113.095V28.0137H99.3974V21.1652H111.896V16.797H99.3974V10.837H112.979V6.46875H94.2896V32.3819Z" fill="black"/>
<path d="M126.159 33.4927H131.112L146.59 5.3584H141.637L126.159 33.4927Z" fill="black"/>
<path d="M160.306 32.3819H168.47C176.983 32.3819 183.213 28.1618 183.213 19.4253C183.213 10.6889 176.983 6.46875 168.47 6.46875H160.306V32.3819ZM165.414 27.8656V10.985H168.819C174.313 10.985 178.028 13.8355 178.028 19.4253C178.028 25.0892 174.313 27.8656 168.819 27.8656H165.414Z" fill="black"/>
</g>
<path d="M25.7412 17.1455C25.7073 13.5892 24.6234 10.6764 22.4219 8.40707C20.2204 6.13779 17.3753 4.98621 13.8867 4.98621C10.3981 4.98621 7.553 6.13779 5.35145 8.40707C3.1499 10.6764 2.06607 13.5892 2.0322 17.1455C2.06607 20.7019 3.1499 23.6147 5.35145 25.884C7.553 28.1533 10.3981 29.3048 13.8867 29.3048C17.3753 29.3048 20.2204 28.1533 22.4219 25.884C24.6234 23.6147 25.7073 20.7019 25.7412 17.1455ZM22.7606 17.1455C22.7267 19.9906 21.9477 22.2599 20.3558 23.9195C18.7978 25.5791 16.6301 26.4259 13.8867 26.4259C11.1432 26.4259 8.97554 25.5791 7.38365 23.9195C5.82563 22.2599 5.04662 19.9906 5.01275 17.1455C5.04662 14.3004 5.82563 12.0312 7.38365 10.3715C8.97554 8.7119 11.1432 7.86516 13.8867 7.86516C16.6301 7.86516 18.7978 8.7119 20.3558 10.3715C21.9477 12.0312 22.7267 14.3004 22.7606 17.1455ZM13.9544 21.4131C11.7867 21.4131 10.7029 20.0245 10.7029 17.2471C10.7029 14.4698 11.7867 13.0811 13.9544 13.0811C15.6818 13.0811 16.5963 13.894 16.7318 15.5198H19.5768C19.4413 12.6747 17.443 10.4393 13.9544 10.4393C10.0255 10.4393 7.82396 13.0473 7.82396 17.2471C7.82396 21.447 10.0255 24.0211 13.9883 24.0211C17.3753 24.0211 19.3736 21.8873 19.6446 19.0084H16.7995C16.6301 20.6003 15.6818 21.4131 13.9544 21.4131Z" fill="black"/>
<defs>
<clipPath id="clip0_288_599">
<rect width="142.011" height="28.1343" fill="white" transform="translate(41.5316 5.3584)"/>
</clipPath>
</defs>
</svg>
