<svg width="106" height="21" viewBox="0 0 106 21" fill="none" xmlns="http://www.w3.org/2000/svg">
<g clip-path="url(#clip0_188_10)">
<path d="M0.247803 4.19918H6.42873V20.1702H10.2413V4.19918H16.4222V0.828125H0.247803V4.19918Z" fill="white"/>
<path d="M18.9869 20.1702H22.7995V11.9913H31.6377V20.1702H35.4503V0.828125H31.6377V8.62023H22.7995V0.828125H18.9869V20.1702Z" fill="white"/>
<path d="M39.3798 20.1702H53.4168V16.9097H43.1923V11.7979H52.5214V8.53734H43.1923V4.08865H53.3302V0.828125H39.3798V20.1702Z" fill="white"/>
<path d="M63.1676 21H66.8646L78.4177 0H74.7207L63.1676 21Z" fill="white"/>
<path d="M88.6555 20.1702H94.7498C101.104 20.1702 105.754 17.0202 105.754 10.4992C105.754 3.97813 101.104 0.828125 94.7498 0.828125H88.6555V20.1702ZM92.468 16.7992V4.19918H95.0097C99.1111 4.19918 101.884 6.32681 101.884 10.4992C101.884 14.7268 99.1111 16.7992 95.0097 16.7992H92.468Z" fill="white"/>
</g>
<defs>
<clipPath id="clip0_188_10">
<rect width="106" height="21" fill="white"/>
</clipPath>
</defs>
</svg>
