<svg width="15" height="72" viewBox="0 0 15 72" fill="none" xmlns="http://www.w3.org/2000/svg">
<g clip-path="url(#clip0_188_601)">
<path d="M2.81601 71.3281L2.81601 67.1839H13.5243V64.6277H2.81601V60.4835H0.555786L0.555786 71.3281H2.81601Z" fill="black"/>
<path d="M13.5243 58.7637V56.2074H8.04047V50.2816H13.5243V47.7253H0.555786L0.555786 50.2816H5.78024L5.78024 56.2074H0.555786L0.555786 58.7637H13.5243Z" fill="black"/>
<path d="M13.5243 45.0908V35.6792H11.3382V42.5346H7.91078L7.91078 36.2796H5.72466L5.72466 42.5346H2.74191L2.74191 35.7373H0.555786L0.555786 45.0908H13.5243Z" fill="black"/>
<path d="M14.0801 29.1416V26.6628L0 18.9167L0 21.3955L14.0801 29.1416Z" fill="black"/>
<path d="M13.5243 12.0527V7.96664C13.5243 3.70625 11.4123 0.588433 7.04004 0.588433C2.6678 0.588433 0.555786 3.70625 0.555786 7.96664L0.555786 12.0527H13.5243ZM11.2641 9.49651H2.81601L2.81601 7.79235C2.81601 5.04247 4.24255 3.18339 7.04004 3.18339C9.87458 3.18339 11.2641 5.04247 11.2641 7.79235V9.49651Z" fill="black"/>
</g>
<defs>
<clipPath id="clip0_188_601">
<rect width="71.0709" height="14.0801" fill="white" transform="matrix(0 -1 1 0 0 71.4941)"/>
</clipPath>
</defs>
</svg>
