<svg width="184" height="39" viewBox="0 0 184 39" fill="none" xmlns="http://www.w3.org/2000/svg">
<g clip-path="url(#clip0_288_189)">
<path d="M41.8635 11.905H50.1442V33.3018H55.252V11.905H63.5327V7.38867H41.8635V11.905Z" fill="#B6FF7D"/>
<path d="M66.9688 33.3018H72.0766V22.3443H83.9174V33.3018H89.0252V7.38867H83.9174V17.828H72.0766V7.38867H66.9688V33.3018Z" fill="#B6FF7D"/>
<path d="M94.2896 33.3018H113.095V28.9336H99.3974V22.0851H111.896V17.7169H99.3974V11.7569H112.979V7.38867H94.2896V33.3018Z" fill="#B6FF7D"/>
<path d="M126.159 34.4126H131.112L146.59 6.27832H141.637L126.159 34.4126Z" fill="#B6FF7D"/>
<path d="M160.306 33.3018H168.47C176.983 33.3018 183.213 29.0817 183.213 20.3452C183.213 11.6088 176.983 7.38867 168.47 7.38867H160.306V33.3018ZM165.414 28.7855V11.905H168.819C174.313 11.905 178.028 14.7554 178.028 20.3452C178.028 26.0091 174.313 28.7855 168.819 28.7855H165.414Z" fill="#B6FF7D"/>
</g>
<path d="M25.7412 18.0654C25.7073 14.5091 24.6234 11.5963 22.4219 9.327C20.2204 7.05771 17.3753 5.90613 13.8867 5.90613C10.3981 5.90613 7.553 7.05771 5.35145 9.327C3.1499 11.5963 2.06607 14.5091 2.0322 18.0654C2.06607 21.6218 3.1499 24.5346 5.35145 26.8039C7.553 29.0732 10.3981 30.2248 13.8867 30.2248C17.3753 30.2248 20.2204 29.0732 22.4219 26.8039C24.6234 24.5346 25.7073 21.6218 25.7412 18.0654ZM22.7606 18.0654C22.7267 20.9105 21.9477 23.1798 20.3558 24.8394C18.7978 26.4991 16.6301 27.3458 13.8867 27.3458C11.1432 27.3458 8.97554 26.4991 7.38365 24.8394C5.82563 23.1798 5.04662 20.9105 5.01275 18.0654C5.04662 15.2204 5.82563 12.9511 7.38365 11.2915C8.97554 9.63183 11.1432 8.78508 13.8867 8.78508C16.6301 8.78508 18.7978 9.63183 20.3558 11.2915C21.9477 12.9511 22.7267 15.2204 22.7606 18.0654ZM13.9544 22.3331C11.7867 22.3331 10.7029 20.9444 10.7029 18.1671C10.7029 15.3897 11.7867 14.001 13.9544 14.001C15.6818 14.001 16.5963 14.8139 16.7318 16.4397H19.5768C19.4413 13.5946 17.443 11.3592 13.9544 11.3592C10.0255 11.3592 7.82396 13.9672 7.82396 18.1671C7.82396 22.3669 10.0255 24.941 13.9883 24.941C17.3753 24.941 19.3736 22.8072 19.6446 19.9283H16.7995C16.6301 21.5202 15.6818 22.3331 13.9544 22.3331Z" fill="#B6FF7D"/>
<defs>
<clipPath id="clip0_288_189">
<rect width="142.011" height="28.1343" fill="white" transform="translate(41.5316 6.27832)"/>
</clipPath>
</defs>
</svg>
